/* XPM */
static char * door_xpm[] = {
"64 64 96 2",
"  	c #FFFFFF",
". 	c #4D4D4D",
"+ 	c #000000",
"@ 	c #2A2A2A",
"# 	c #404040",
"$ 	c #4F4F4F",
"% 	c #696969",
"& 	c #838383",
"* 	c #999999",
"= 	c #B3B3B3",
"- 	c #CDCDCD",
"; 	c #E4E4E4",
"> 	c #FBFBFB",
", 	c #848484",
"' 	c #BEBEBE",
") 	c #EDEDED",
"! 	c #7C7C7C",
"~ 	c #D2D2D2",
"{ 	c #FDFDFD",
"] 	c #666666",
"^ 	c #D9D9D9",
"/ 	c #9C9C9C",
"( 	c #F9F9F9",
"_ 	c #E7E7E7",
": 	c #FCFCFC",
"< 	c #F0F0F0",
"[ 	c #D1D1D1",
"} 	c #B6B6B6",
"| 	c #888888",
"1 	c #2E2E2E",
"2 	c #6D6D6D",
"3 	c #F1F1F1",
"4 	c #D3D3D3",
"5 	c #8B8B8B",
"6 	c #656565",
"7 	c #F2F2F2",
"8 	c #797979",
"9 	c #7A7A7A",
"0 	c #B4B4B4",
"a 	c #AFAFAF",
"b 	c #C2C2C2",
"c 	c #1C1C1C",
"d 	c #EAEAEA",
"e 	c #AAAAAA",
"f 	c #929292",
"g 	c #0D0D0D",
"h 	c #B1B1B1",
"i 	c #FEFEFE",
"j 	c #5F5F5F",
"k 	c #B9B9B9",
"l 	c #ECECEC",
"m 	c #CECECE",
"n 	c #3B3B3B",
"o 	c #ADADAD",
"p 	c #808080",
"q 	c #A4A4A4",
"r 	c #6C6C6C",
"s 	c #B7B7B7",
"t 	c #383838",
"u 	c #C5C5C5",
"v 	c #CACACA",
"w 	c #FAFAFA",
"x 	c #F7F7F7",
"y 	c #3D3D3D",
"z 	c #A3A3A3",
"A 	c #7D7D7D",
"B 	c #8D8D8D",
"C 	c #353535",
"D 	c #E3E3E3",
"E 	c #D0D0D0",
"F 	c #EEEEEE",
"G 	c #5A5A5A",
"H 	c #B5B5B5",
"I 	c #626262",
"J 	c #161616",
"K 	c #EFEFEF",
"L 	c #A7A7A7",
"M 	c #979797",
"N 	c #C0C0C0",
"O 	c #222222",
"P 	c #B2B2B2",
"Q 	c #787878",
"R 	c #828282",
"S 	c #D4D4D4",
"T 	c #F4F4F4",
"U 	c #E5E5E5",
"V 	c #B8B8B8",
"W 	c #8A8A8A",
"X 	c #757575",
"Y 	c #DDDDDD",
"Z 	c #818181",
"` 	c #D5D5D5",
" .	c #323232",
"..	c #868686",
"+.	c #4B4B4B",
"@.	c #686868",
"                                                                                                                                ",
"                                                                                                                                ",
"                                                                                                                                ",
"                                                                                                                                ",
"                                                                                                                                ",
"                                                                                                                                ",
"                                                                                                                                ",
"                                                                                                                                ",
"                                                                                                                                ",
"                            . + + + + + + + + + + + + @ # $ % & * = - ; >                                                       ",
"                            . + + + + + + + + + + + + + + + + + + + + + @ , ' )                                                 ",
"                            . + + + + + + + + + + + + + + + + + + + + + + + + + ! ~ {                                           ",
"                            . + + + + + + + + + + + + + + + + + + + + + + + + + + + ] ^                                         ",
"                            . + + + + + + + + + + + + + + + + + + + + + + + + + + + + + / (                                     ",
"                            . + + + + + _               : ( < ; [ } | 1 + + + + + + + + + 2 3                                   ",
"                            . + + + + + _                             > 4 5 + + + + + + + + 6 7                                 ",
"                            . + + + + + _                                   ; 8 + + + + + + + 9 :                               ",
"                            . + + + + + _                                     { 0 + + + + + + + a                               ",
"                            . + + + + + _                                         b + + + + + + c d                             ",
"                            . + + + + + _                                           e + + + + + + f                             ",
"                            . + + + + + _                                           > ] + + + + + g )                           ",
"                            . + + + + + _                                             ~ + + + + + + h                           ",
"                            . + + + + + _                                             i j + + + + + 6                           ",
"                            . + + + + + _                                               k + + + + + + l                         ",
"                            . + + + + + _                                               ; + + + + + + m                         ",
"                            . + + + + + _                                               i n + + + + + o                         ",
"                            . + + + + + _                                                 p + + + + + 5                         ",
"                            . + + + + + _                                                 q + + + + + r                         ",
"                            . + + + + + _                                                 s + + + + + t                         ",
"                            . + + + + + _                                                 u + + + + + + i                       ",
"                            . + + + + + _                                                 v + + + + + + w                       ",
"                            . + + + + + _                                                 m + + + + + + x                       ",
"                            . + + + + + _                                                 v + + + + + + >                       ",
"                            . + + + + + _                                                 u + + + + + + i                       ",
"                            . + + + + + _                                                 } + + + + + y                         ",
"                            . + + + + + _                                                 z + + + + + 2                         ",
"                            . + + + + + _                                                 A + + + + + B                         ",
"                            . + + + + + _                                               { C + + + + + a                         ",
"                            . + + + + + _                                               D + + + + + + E                         ",
"                            . + + + + + _                                               } + + + + + + F                         ",
"                            . + + + + + _                                             i G + + + + + r                           ",
"                            . + + + + + _                                             E + + + + + + H                           ",
"                            . + + + + + _                                           w I + + + + + J K                           ",
"                            . + + + + + _                                           L + + + + + + M                             ",
"                            . + + + + + _                                         N + + + + + + O )                             ",
"                            . + + + + + _                                     { P + + + + + + + H                               ",
"                            . + + + + + _                                   ; Q + + + + + + + R {                               ",
"                            . + + + + + _                             > S 5 + + + + + + + + 2 T                                 ",
"                            . + + + + + _               { ( 3 U ~ V W 1 + + + + + + + + + X T                                   ",
"                            . + + + + + + + + + + + + + + + + + + + + + + + + + + + + + z >                                     ",
"                            . + + + + + + + + + + + + + + + + + + + + + + + + + + + 2 Y                                         ",
"                            . + + + + + + + + + + + + + + + + + + + + + + + + + Z ` i                                           ",
"                            . + + + + + + + + + + + + + + + + + + + + +  ...N F                                                 ",
"                            . + + + + + + + + + + + + O n +.@.R * = - ; :                                                       ",
"                                                                                                                                ",
"                                                                                                                                ",
"                                                                                                                                ",
"                                                                                                                                ",
"                                                                                                                                ",
"                                                                                                                                ",
"                                                                                                                                ",
"                                                                                                                                ",
"                                                                                                                                ",
"                                                                                                                                "};
